<?xml version="1.0" encoding="UTF-8"?>
<svg id="Layer_2" data-name="Layer 2" xmlns="http://www.w3.org/2000/svg" viewBox="0 0 402.98 59.98">
  <defs>
    <style>
      .cls-1 {
        fill: #fff;
      }
    </style>
  </defs>
  <g id="Layer_1-2" data-name="Layer 1">
    <g>
      <g>
        <path class="cls-1" d="M2.73,53.68l-.66,1.48h-.64l-.38-5.79h.79c1.53,3.14,2.88,4.92,5.51,4.92,1.96,0,3.42-.94,3.42-2.91s-1.05-2.6-4.21-3.65c-3.42-1.12-5.2-2.14-5.2-5.23,0-2.58,1.96-4.36,5.07-4.36,1.76,0,2.98.69,3.7,1.27l.56-1.1h.61l.51,4.9h-.71c-1.68-2.93-2.63-4.05-4.72-4.05-1.73,0-2.98.92-2.98,2.58s.89,2.24,3.77,3.14c3.44,1.07,5.92,2.37,5.92,5.46s-2.19,5.02-5.76,5.02c-2.29,0-3.67-.89-4.59-1.68Z"/>
        <path class="cls-1" d="M14.21,49.01c0-3.19,2.17-6.32,6.12-6.32,2.45,0,4.08.99,4.08,2.88,0,.82-.59,1.53-1.53,1.53-.82,0-1.5-.64-1.5-1.43s.48-1.3,1.33-1.61v-.05c-.51-.25-1.07-.43-2.12-.43-2.09,0-3.54,1.1-3.54,5.18s1.43,5.38,3.88,5.38c1.25,0,2.04-.36,3.03-.71l.25.56c-1.15.74-2.35,1.38-4.21,1.38-3.77,0-5.79-3.16-5.79-6.35Z"/>
        <path class="cls-1" d="M25.4,49.01c0-3.19,2.55-6.32,6.02-6.32s6.02,3.14,6.02,6.32-2.55,6.35-6.02,6.35-6.02-3.16-6.02-6.35ZM34.61,49.01c0-4.56-1.56-5.43-3.19-5.43s-3.19.89-3.19,5.43,1.53,5.46,3.19,5.46,3.19-.94,3.19-5.46Z"/>
        <path class="cls-1" d="M38.3,54.22h1.63v-9.05l-1.81-.54v-.61l3.9-1.17h.51v2.6l.05.03c1.07-1.96,2.35-2.73,3.6-2.73,1.12,0,1.86.84,1.86,1.81s-.69,1.76-1.58,1.76c-.99,0-1.45-.64-1.45-1.35,0-.41.25-.82.46-.99v-.05c-.94.15-1.96,1.22-2.93,2.73v7.57h1.99v.94h-6.22v-.94Z"/>
        <path class="cls-1" d="M48.48,58.63h1.63v-13.46l-1.81-.54v-.61l3.9-1.17h.51v2.52l.05.03c1.12-1.53,2.42-2.7,4.28-2.7,2.7,0,4.69,2.58,4.69,6.27,0,3.93-2.4,6.4-5.53,6.4-1.33,0-2.47-.43-3.49-1.5v4.77h1.94v.94h-6.17v-.94ZM57.84,53.48c.76-.74,1.1-2.19,1.1-4.51s-.28-3.75-1.02-4.33c-.46-.36-1.15-.48-1.56-.48-1.84,0-2.52.99-3.65,2.14v6.73c.76.71,1.61,1.22,2.91,1.22.87,0,1.66-.23,2.22-.76Z"/>
        <path class="cls-1" d="M62.66,54.22h1.76v-9.05l-1.94-.54v-.61l3.9-1.17h.64v11.37h1.56v.94h-5.92v-.94ZM63.91,39.22c0-.84.74-1.61,1.63-1.61s1.63.77,1.63,1.61-.74,1.61-1.63,1.61-1.63-.76-1.63-1.61Z"/>
        <path class="cls-1" d="M69.52,49.01c0-3.19,2.55-6.32,6.02-6.32s6.02,3.14,6.02,6.32-2.55,6.35-6.02,6.35-6.02-3.16-6.02-6.35ZM78.72,49.01c0-4.56-1.56-5.43-3.19-5.43s-3.19.89-3.19,5.43,1.53,5.46,3.19,5.46,3.19-.94,3.19-5.46Z"/>
        <path class="cls-1" d="M82.42,54.22h1.63v-9.05l-1.81-.54v-.61l3.9-1.17h.51v2.68l.05.03c1.33-1.84,2.55-2.86,4.31-2.86,2.47,0,3.49,1.71,3.49,4.16v7.37h1.38v.94h-5.41v-.94h1.43v-8.18c0-1.33-.46-1.79-1.71-1.79s-2.14.71-3.54,2.14v7.83h1.43v.94h-5.66v-.94Z"/>
        <path class="cls-1" d="M103.76,53.68l-.66,1.48h-.64l-.38-5.79h.79c1.53,3.14,2.88,4.92,5.51,4.92,1.96,0,3.42-.94,3.42-2.91s-1.05-2.6-4.21-3.65c-3.42-1.12-5.2-2.14-5.2-5.23,0-2.58,1.96-4.36,5.07-4.36,1.76,0,2.98.69,3.7,1.27l.56-1.1h.61l.51,4.9h-.71c-1.68-2.93-2.63-4.05-4.72-4.05-1.73,0-2.98.92-2.98,2.58s.89,2.24,3.77,3.14c3.44,1.07,5.92,2.37,5.92,5.46s-2.19,5.02-5.76,5.02c-2.29,0-3.67-.89-4.59-1.68Z"/>
        <path class="cls-1" d="M115.44,58.35c0-.74.56-1.33,1.27-1.33s1.27.46,1.27,1.27c0,.31-.18.71-.48.92v.05c1.2,0,1.91-1.12,2.55-2.88l.43-1.22h-.46l-4.44-11.12h-1.2v-.94h5.63v.94h-1.63l3.24,8.85,2.98-8.85h-1.43v-.94h4.03v.94h-1.12l-5.18,12.8c-.94,2.4-2.07,3.14-3.49,3.14-1.2,0-1.99-.69-1.99-1.63Z"/>
        <path class="cls-1" d="M129.16,54.14l-.41,1.02h-.64l-.33-4.41h.69c1.78,3.06,2.63,3.67,4.44,3.67,1.71,0,2.35-.87,2.35-1.94,0-1.45-1.3-1.76-3.19-2.32-3.34-.99-4.11-2.04-4.11-3.98,0-2.24,1.89-3.49,4-3.49,1.25,0,2.24.38,3.06.92l.48-.77h.61l.23,3.75h-.61c-1.35-2.4-2.45-2.98-3.77-2.98-1.4,0-2.22.71-2.22,1.84,0,1.35,1.1,1.68,2.98,2.24,3.39,1.02,4.49,1.99,4.49,4.03s-1.53,3.65-4.31,3.65c-1.71,0-2.78-.48-3.75-1.22Z"/>
        <path class="cls-1" d="M139.33,51.77v-7.37h-1.61v-.69l1.66-.48,1.68-3.67h.87v3.54h2.98v1.3h-2.98v8.31c0,.79.31,1.27,1.45,1.27.74,0,1.17-.18,1.66-.36l.25.41c-.79.69-1.68,1.33-3.16,1.33-2.29,0-2.8-1.56-2.8-3.6Z"/>
        <path class="cls-1" d="M145.91,49.19c0-3.44,2.35-6.5,5.71-6.5,2.6,0,4.92,1.5,4.92,5.48h-7.85v.71c0,4.1,1.15,5.25,3.57,5.25,1.43,0,2.4-.36,3.47-.76l.26.56c-1.2.77-2.6,1.43-4.44,1.43-3.77,0-5.63-2.98-5.63-6.17ZM153.92,47.25c-.15-2.8-.66-3.67-2.37-3.67-1.4,0-2.52.56-2.8,3.67h5.18Z"/>
        <path class="cls-1" d="M157.31,54.22h1.63v-9.05l-1.81-.54v-.61l3.9-1.17h.51v2.7l.05.03c1.22-1.71,2.5-2.88,4.1-2.88,1.99,0,2.91,1.27,3.31,2.96,1.33-1.76,2.65-2.96,4.23-2.96,2.35,0,3.39,1.81,3.39,4.08v7.45h1.38v.94h-5.33v-.94h1.35v-8.26c0-1.27-.48-1.71-1.71-1.71-.92,0-1.96.71-3.24,1.91v8.06h1.38v.94h-5.33v-.94h1.35v-8.26c0-1.27-.48-1.71-1.71-1.71-1.02,0-1.86.77-3.24,2.14v7.83h1.35v.94h-5.58v-.94Z"/>
        <path class="cls-1" d="M178.76,52.63c0-2.17,1.81-3.11,5.1-3.8l1.94-.41v-1.76c0-2.22-1.15-2.83-3.14-2.83-.92,0-1.71.23-2.09.38v.05c.99.25,1.3.92,1.3,1.48,0,.71-.56,1.25-1.35,1.25-.84,0-1.43-.64-1.43-1.5,0-1.81,2.65-2.8,4.72-2.8,3.03,0,4.59,1.15,4.59,5.61v4.74c0,.79.33.89,1.66.97v.46c-.36.31-1.1.84-2.19.84-1.27,0-2.07-.74-2.07-1.91v-.54c-.84,1.25-2.37,2.5-3.93,2.5-1.86,0-3.11-1.07-3.11-2.73ZM185.79,52.25v-3.21l-1.94.66c-2.09.74-2.47,1.33-2.47,2.4s.48,1.66,1.5,1.66c1.22,0,2.07-.64,2.91-1.5Z"/>
        <path class="cls-1" d="M191.92,51.77v-7.37h-1.61v-.69l1.66-.48,1.68-3.67h.87v3.54h2.98v1.3h-2.98v8.31c0,.79.31,1.27,1.45,1.27.74,0,1.17-.18,1.66-.36l.25.41c-.79.69-1.68,1.33-3.16,1.33-2.29,0-2.8-1.56-2.8-3.6Z"/>
        <path class="cls-1" d="M198.39,54.22h1.76v-9.05l-1.94-.54v-.61l3.9-1.17h.64v11.37h1.56v.94h-5.92v-.94ZM199.64,39.22c0-.84.74-1.61,1.63-1.61s1.63.77,1.63,1.61-.74,1.61-1.63,1.61-1.63-.76-1.63-1.61Z"/>
        <path class="cls-1" d="M205.25,49.01c0-3.19,2.17-6.32,6.12-6.32,2.45,0,4.08.99,4.08,2.88,0,.82-.59,1.53-1.53,1.53-.82,0-1.5-.64-1.5-1.43s.48-1.3,1.33-1.61v-.05c-.51-.25-1.07-.43-2.12-.43-2.09,0-3.54,1.1-3.54,5.18s1.43,5.38,3.88,5.38c1.25,0,2.04-.36,3.03-.71l.25.56c-1.15.74-2.35,1.38-4.21,1.38-3.77,0-5.79-3.16-5.79-6.35Z"/>
        <path class="cls-1" d="M218.03,54.14l-.41,1.02h-.64l-.33-4.41h.69c1.78,3.06,2.63,3.67,4.44,3.67,1.71,0,2.35-.87,2.35-1.94,0-1.45-1.3-1.76-3.19-2.32-3.34-.99-4.11-2.04-4.11-3.98,0-2.24,1.89-3.49,4-3.49,1.25,0,2.24.38,3.06.92l.48-.77h.61l.23,3.75h-.61c-1.35-2.4-2.45-2.98-3.77-2.98-1.4,0-2.22.71-2.22,1.84,0,1.35,1.1,1.68,2.98,2.24,3.39,1.02,4.49,1.99,4.49,4.03s-1.53,3.65-4.31,3.65c-1.71,0-2.78-.48-3.75-1.22Z"/>
        <path class="cls-1" d="M232.38,54.37l2.37-.48v-14.28l-2.37-.51v-.79h7.67c3.47,0,6.37,1.58,6.37,4.62,0,2.65-2.24,3.82-5.23,4.18v.1c1.86.18,2.93.84,3.98,2.91l1.94,3.77,1.66.48v.79h-3.65c-.74,0-1.02-.15-1.2-.64-2.37-6.15-2.35-7.01-5.02-7.01h-1.27v6.37l2.42.48v.79h-7.67v-.79ZM239.27,46.52c3.31,0,4.16-.66,4.16-3.6s-.87-3.57-3.67-3.57h-2.12v7.17h1.63Z"/>
        <path class="cls-1" d="M248.68,49.19c0-3.44,2.35-6.5,5.71-6.5,2.6,0,4.92,1.5,4.92,5.48h-7.85v.71c0,4.1,1.15,5.25,3.57,5.25,1.43,0,2.4-.36,3.47-.76l.26.56c-1.2.77-2.6,1.43-4.44,1.43-3.77,0-5.64-2.98-5.64-6.17ZM256.68,47.25c-.15-2.8-.66-3.67-2.37-3.67-1.4,0-2.52.56-2.81,3.67h5.18Z"/>
        <path class="cls-1" d="M261.76,54.14l-.41,1.02h-.64l-.33-4.41h.69c1.78,3.06,2.63,3.67,4.44,3.67,1.71,0,2.35-.87,2.35-1.94,0-1.45-1.3-1.76-3.19-2.32-3.34-.99-4.11-2.04-4.11-3.98,0-2.24,1.89-3.49,4-3.49,1.25,0,2.24.38,3.06.92l.48-.77h.61l.23,3.75h-.61c-1.35-2.4-2.45-2.98-3.77-2.98-1.4,0-2.22.71-2.22,1.84,0,1.35,1.1,1.68,2.98,2.24,3.39,1.02,4.49,1.99,4.49,4.03s-1.53,3.65-4.31,3.65c-1.71,0-2.78-.48-3.75-1.22Z"/>
        <path class="cls-1" d="M270.89,49.19c0-3.44,2.35-6.5,5.71-6.5,2.6,0,4.92,1.5,4.92,5.48h-7.85v.71c0,4.1,1.15,5.25,3.57,5.25,1.43,0,2.4-.36,3.47-.76l.26.56c-1.2.77-2.6,1.43-4.44,1.43-3.77,0-5.63-2.98-5.63-6.17ZM278.89,47.25c-.15-2.8-.66-3.67-2.37-3.67-1.4,0-2.52.56-2.8,3.67h5.18Z"/>
        <path class="cls-1" d="M282.44,52.63c0-2.17,1.81-3.11,5.1-3.8l1.94-.41v-1.76c0-2.22-1.15-2.83-3.14-2.83-.92,0-1.71.23-2.09.38v.05c.99.25,1.3.92,1.3,1.48,0,.71-.56,1.25-1.35,1.25-.84,0-1.43-.64-1.43-1.5,0-1.81,2.65-2.8,4.72-2.8,3.03,0,4.59,1.15,4.59,5.61v4.74c0,.79.33.89,1.66.97v.46c-.36.31-1.1.84-2.19.84-1.27,0-2.07-.74-2.07-1.91v-.54c-.84,1.25-2.37,2.5-3.93,2.5-1.86,0-3.11-1.07-3.11-2.73ZM289.48,52.25v-3.21l-1.94.66c-2.09.74-2.47,1.33-2.47,2.4s.48,1.66,1.5,1.66c1.22,0,2.07-.64,2.91-1.5Z"/>
        <path class="cls-1" d="M294.55,54.22h1.63v-9.05l-1.81-.54v-.61l3.9-1.17h.51v2.6l.05.03c1.07-1.96,2.35-2.73,3.6-2.73,1.12,0,1.86.84,1.86,1.81s-.69,1.76-1.58,1.76c-.99,0-1.45-.64-1.45-1.35,0-.41.25-.82.46-.99v-.05c-.94.15-1.96,1.22-2.93,2.73v7.57h1.99v.94h-6.22v-.94Z"/>
        <path class="cls-1" d="M304.83,49.01c0-3.19,2.17-6.32,6.12-6.32,2.45,0,4.08.99,4.08,2.88,0,.82-.59,1.53-1.53,1.53-.82,0-1.5-.64-1.5-1.43s.48-1.3,1.33-1.61v-.05c-.51-.25-1.07-.43-2.12-.43-2.09,0-3.54,1.1-3.54,5.18s1.43,5.38,3.88,5.38c1.25,0,2.04-.36,3.03-.71l.25.56c-1.15.74-2.35,1.38-4.21,1.38-3.77,0-5.79-3.16-5.79-6.35Z"/>
        <path class="cls-1" d="M315.69,54.22h1.63v-15.15l-1.81-.69v-.61l3.82-1.02h.59v8.77l.05.03c1.33-1.84,2.55-2.86,4.31-2.86,2.47,0,3.49,1.84,3.49,4.16v7.37h1.38v.94h-5.41v-.94h1.43v-8.06c0-1.33-.46-1.79-1.71-1.79s-2.14.59-3.54,2.01v7.83h1.43v.94h-5.66v-.94Z"/>
        <path class="cls-1" d="M335.38,46.75c0-4.39,3.11-8.62,8.11-8.62,2.24,0,3.37.76,4.36,1.48l.56-1.3h.56l.59,5.46h-.76c-1.66-3.26-2.88-4.59-5.23-4.59-3.01,0-5.05,1.81-5.05,7.8,0,5.18,1.58,7.32,5.1,7.32,1.56,0,2.58-.43,3.54-1.12v-4.33l-2.35-.51v-.76h7.09v.76l-1.91.51v6.32h-.56l-1.05-1.99c-1.22,1.3-2.91,2.19-5.02,2.19-5.15,0-7.98-4.03-7.98-8.62Z"/>
        <path class="cls-1" d="M352.56,54.22h1.63v-9.05l-1.81-.54v-.61l3.9-1.17h.51v2.6l.05.03c1.07-1.96,2.35-2.73,3.6-2.73,1.12,0,1.86.84,1.86,1.81s-.69,1.76-1.58,1.76c-.99,0-1.45-.64-1.45-1.35,0-.41.25-.82.46-.99v-.05c-.94.15-1.96,1.22-2.93,2.73v7.57h1.99v.94h-6.22v-.94Z"/>
        <path class="cls-1" d="M362.84,49.01c0-3.19,2.55-6.32,6.02-6.32s6.02,3.14,6.02,6.32-2.55,6.35-6.02,6.35-6.02-3.16-6.02-6.35ZM372.04,49.01c0-4.56-1.56-5.43-3.19-5.43s-3.19.89-3.19,5.43,1.53,5.46,3.19,5.46,3.19-.94,3.19-5.46Z"/>
        <path class="cls-1" d="M377.2,51.21v-7.16h-1.63v-.94h4.23v8.92c0,1.33.46,1.78,1.71,1.78s2.14-.71,3.54-2.14v-7.62h-1.68v-.94h4.28v10.28l1.81.69v.59l-3.9.66h-.51v-2.78l-.05-.03c-1.33,1.84-2.55,2.86-4.31,2.86-2.47,0-3.49-1.71-3.49-4.16Z"/>
        <path class="cls-1" d="M389.72,58.63h1.63v-13.46l-1.81-.54v-.61l3.9-1.17h.51v2.52l.05.03c1.12-1.53,2.42-2.7,4.28-2.7,2.7,0,4.69,2.58,4.69,6.27,0,3.93-2.4,6.4-5.53,6.4-1.33,0-2.47-.43-3.49-1.5v4.77h1.94v.94h-6.17v-.94ZM399.07,53.48c.76-.74,1.1-2.19,1.1-4.51s-.28-3.75-1.02-4.33c-.46-.36-1.15-.48-1.56-.48-1.84,0-2.52.99-3.65,2.14v6.73c.76.71,1.61,1.22,2.91,1.22.87,0,1.66-.23,2.22-.76Z"/>
      </g>
      <g>
        <g>
          <path class="cls-1" d="M0,24.55l2.56-.72L11.48,2.12h3.31l8.64,21.71,2.23.72v1.48h-11.41v-1.48l2.95-.72-2.27-6.01h-7.38l-2.16,6.01,2.92.72v1.48H0v-1.48ZM8.24,15.95h5.98l-3.06-8.06-2.92,8.06Z"/>
          <path class="cls-1" d="M26.24,24.12h2.02v-11.63l-2.34-.97v-1.33l6.19-1.94h1.19v3.56l.07.04c1.33-2.38,3.06-3.78,5.08-3.78,1.91,0,3.2,1.4,3.2,3.1s-1.22,3.02-2.7,3.02c-1.62,0-2.48-1.01-2.48-2.2,0-.61.36-1.22.72-1.48v-.07c-1.22.18-2.59,1.62-3.67,3.28v10.4h2.48v1.91h-9.75v-1.91Z"/>
          <path class="cls-1" d="M41.98,22.21c0-3.13,2.23-4.64,7.09-5.47l3.06-.54v-2.45c0-2.59-1.3-3.42-4.03-3.42-1.22,0-2.3.29-2.77.43v.07c1.33.32,1.87,1.26,1.87,2.27,0,1.15-.97,2.05-2.27,2.05-1.4,0-2.38-1.08-2.38-2.52,0-2.99,3.78-4.61,7.45-4.61,4.79,0,7.38,1.87,7.38,8.17v6.19c0,1.08.36,1.26,1.98,1.4v1.26c-.86.58-1.91,1.19-3.6,1.19-2.23,0-3.6-1.19-3.6-3.24v-.36c-1.12,1.98-3.24,3.67-5.65,3.67-2.63,0-4.54-1.62-4.54-4.1ZM52.13,21.53v-4.21l-2.34.86c-1.98.68-2.56,1.55-2.56,3.1,0,1.4.65,2.05,1.8,2.05,1.22,0,2.2-.72,3.1-1.8Z"/>
          <path class="cls-1" d="M60.08,17.24c0-4.72,3.46-9.21,9.47-9.21,3.74,0,6.41,1.62,6.41,4.57,0,1.37-1.04,2.63-2.56,2.63-1.4,0-2.45-1.01-2.45-2.3,0-1.19.79-2.09,1.91-2.45v-.07c-.54-.29-1.33-.47-2.48-.47-2.84,0-4.46,1.4-4.46,6.8,0,5.9,1.87,7.05,4.86,7.05,1.69,0,2.84-.47,4.28-1.12l.65,1.19c-1.58,1.3-3.6,2.45-6.73,2.45-5.83,0-8.89-4.54-8.89-9.07Z"/>
          <path class="cls-1" d="M76.61,24.12h2.02V4.07l-2.41-1.04v-1.37l6.44-1.66h1.22v11.63l.07.04c1.58-2.12,3.38-3.64,5.94-3.64,3.13,0,5.08,2.38,5.08,5.9v10.19h1.62v1.91h-8.5v-1.91h1.62v-10.69c0-1.48-.58-1.91-1.91-1.91-1.4,0-2.66.47-3.92,1.58v11.01h1.58v1.91h-8.85v-1.91Z"/>
          <path class="cls-1" d="M97.63,24.12h2.02v-11.63l-2.34-.97v-1.33l6.19-1.94h1.19v3.6l.07.04c1.66-2.23,3.56-3.85,6.16-3.85,3.13,0,5.08,2.3,5.08,5.9v10.19h1.62v1.91h-8.5v-1.91h1.62v-10.76c0-1.51-.58-1.91-1.91-1.91-1.4,0-2.66.54-3.92,1.66v11.01h1.58v1.91h-8.85v-1.91Z"/>
          <path class="cls-1" d="M118.66,17.17c0-4.64,3.82-9.14,9.29-9.14s9.32,4.5,9.32,9.14-3.82,9.14-9.32,9.14-9.29-4.54-9.29-9.14ZM131.4,17.17c0-6.26-1.33-7.56-3.46-7.56s-3.46,1.33-3.46,7.56,1.3,7.56,3.46,7.56,3.46-1.4,3.46-7.56Z"/>
          <path class="cls-1" d="M138.24,24.12h2.2V4.07l-2.59-1.04v-1.37l6.62-1.66h1.22v24.12h1.94v1.91h-9.4v-1.91Z"/>
          <path class="cls-1" d="M148.64,17.17c0-4.64,3.82-9.14,9.29-9.14s9.32,4.5,9.32,9.14-3.82,9.14-9.32,9.14-9.29-4.54-9.29-9.14ZM161.39,17.17c0-6.26-1.33-7.56-3.46-7.56s-3.46,1.33-3.46,7.56,1.3,7.56,3.46,7.56,3.46-1.4,3.46-7.56Z"/>
          <path class="cls-1" d="M167.79,28.47c0-1.66,1.33-2.7,3.67-3.2-1.76-.58-2.48-1.55-2.48-2.92,0-1.76,1.15-2.95,2.56-3.92-1.73-1.12-2.7-2.77-2.7-4.61,0-3.17,2.88-5.79,7.2-5.79s5.72,2.45,7.49,2.41v-.07c-.4-.25-.65-.76-.65-1.3,0-.72.61-1.55,1.8-1.55,1.08,0,1.91.94,1.91,2.02,0,1.55-1.08,2.27-2.38,2.27-.83,0-1.55-.18-2.23-.65l-.04.07c.58.68,1.26,1.66,1.26,2.84,0,2.92-2.88,5.58-7.16,5.58-1.26,0-2.63-.29-3.64-.72-.22.4-.36.79-.36,1.12,0,1.26.68,1.33,6.77,1.55,4.68.14,6.95,1.91,6.95,4.64,0,4.39-4.14,6.26-9.43,6.26-4.93,0-8.53-1.26-8.53-4.03ZM181.65,27.97c0-1.62-.79-2.02-4.25-2.02-2.05,0-3.56-.11-4.79-.32-.61.86-.86,1.58-.86,2.56,0,1.4.68,2.63,4.43,2.63,4.46,0,5.47-1.19,5.47-2.84ZM178.12,13.82c0-3.49-.47-4.32-2.09-4.32s-2.05.83-2.05,4.32.47,4.54,2.05,4.54,2.09-.97,2.09-4.54Z"/>
          <path class="cls-1" d="M188.46,29.66c0-1.3.97-2.3,2.2-2.3s2.05.79,2.05,1.98c0,.61-.29,1.37-.83,1.69l.04.07c1.51-.04,2.88-1.48,3.74-3.92l.4-1.15h-.76l-6.73-15.51h-1.33v-1.91h9.29v1.91h-2.2l4.1,10.98,3.78-10.98h-1.87v-1.91h5.87v1.91h-1.22l-7.2,17.21c-1.62,3.89-3.49,4.93-5.87,4.93-2.09,0-3.46-1.3-3.46-2.99Z"/>
          <path class="cls-1" d="M213.8,24.55l2.84-.76V4.39l-2.84-.68v-1.48h11.91v1.48l-3.1.68v20.19l6.48-.47,4.07-6.66h1.26l-.97,8.57h-19.65v-1.48Z"/>
          <path class="cls-1" d="M235.15,22.21c0-3.13,2.23-4.64,7.09-5.47l3.06-.54v-2.45c0-2.59-1.3-3.42-4.03-3.42-1.22,0-2.3.29-2.77.43v.07c1.33.32,1.87,1.26,1.87,2.27,0,1.15-.97,2.05-2.27,2.05-1.4,0-2.38-1.08-2.38-2.52,0-2.99,3.78-4.61,7.45-4.61,4.79,0,7.38,1.87,7.38,8.17v6.19c0,1.08.36,1.26,1.98,1.4v1.26c-.86.58-1.91,1.19-3.6,1.19-2.23,0-3.6-1.19-3.6-3.24v-.36c-1.12,1.98-3.24,3.67-5.65,3.67-2.63,0-4.54-1.62-4.54-4.1ZM245.3,21.53v-4.21l-2.34.86c-1.98.68-2.56,1.55-2.56,3.1,0,1.4.65,2.05,1.8,2.05,1.22,0,2.2-.72,3.1-1.8Z"/>
          <path class="cls-1" d="M257.83,23.29l-2.09,2.74h-1.4V4.07l-2.41-1.04v-1.37l6.44-1.66h1.22v11.55l.07.04c1.37-1.98,3.24-3.56,5.9-3.56,3.6,0,6.88,3.35,6.88,9.04,0,6.12-3.89,9.25-8.21,9.25-2.41,0-4.64-1.01-6.41-3.02ZM265.42,23.33c.79-.83,1.19-2.56,1.19-6.26,0-3.13-.32-4.79-1.08-5.47-.5-.54-1.26-.76-1.91-.76-1.91,0-2.84,1.01-4.03,2.48v9.65c.97.83,1.91,1.33,3.28,1.33,1.08,0,1.98-.36,2.56-.97Z"/>
        </g>
        <g>
          <path class="cls-1" d="M281.18,18.35c1.12-5.34,4.99-8.35,9.57-8.35,1.79,0,3.58.51,4.61,1.25l-3.14,14.75h-1.76l.86-4c-1.41,2.85-3.33,4.32-5.79,4.32-3.49,0-5.41-3.07-4.35-7.97ZM286.01,24.81c2.94,0,5.7-3.71,7.33-12.19l.03-.26c-.9-.48-1.89-.7-3.01-.7-3.52,0-6.43,2.59-7.36,6.85-.8,3.87.35,6.3,3.01,6.3Z"/>
          <path class="cls-1" d="M297.44,19.79l3.1-14.59h1.73l-1.09,5.12h5.73l-.29,1.54h-5.76l-1.82,8.64c-.64,3.01.22,4.32,2.34,4.32,1.06,0,1.79-.22,3.04-.67l-.32,1.47c-1.06.51-2.08.7-3.2.7-3.42,0-4.32-2.5-3.46-6.53Z"/>
          <path class="cls-1" d="M322.27,3.6h2.21l8.16,22.4h-2.02l-2.18-6.14h-10.18l-2.18,6.14h-1.98l8.16-22.4ZM327.84,18.09l-4.45-12.58-4.48,12.58h8.93Z"/>
          <path class="cls-1" d="M336.32,3.6h2.69l7.52,19.65,7.49-19.65h2.72v22.4h-1.92V6.35l-7.52,19.65h-1.6l-7.52-19.65v19.65h-1.86V3.6Z"/>
          <path class="cls-1" d="M362.36,3.6h2.08l12.93,19.17V3.6h1.92v22.4h-1.89l-13.12-19.55v19.55h-1.92V3.6Z"/>
          <path class="cls-1" d="M384.92,3.6h1.92v10.24h12.42V3.6h1.92v22.4h-1.92v-10.4h-12.42v10.4h-1.92V3.6Z"/>
        </g>
      </g>
    </g>
  </g>
</svg>